<svg 
  xmlns="http://www.w3.org/2000/svg" 
  viewBox="0 0 512 512" 
  fill="white" 
  width="64" 
  height="64"
>
  <path d="M290.74 93.24a24 24 0 0 1 33.94 0l94.08 94.06a24 24 0 0 1 0 33.94l-189.1 189.1a16 16 0 0 1-10.66 4.69l-92.68 4.63a16 16 0 0 1-16.7-16.7l4.63-92.68a16 16 0 0 1 4.69-10.66zm25.32 58.62-114.3 114.3-2.87 57.4 57.4-2.87 114.3-114.3zM384 416a16 16 0 0 1 16 16v48a32 32 0 0 1-32 32H80a64 64 0 0 1-64-64V96a64 64 0 0 1 64-64h240a16 16 0 0 1 16 16v48a16 16 0 0 1-16 16H96a16 16 0 0 0-16 16v320a16 16 0 0 0 16 16h288z"/>
</svg>
